<?xml version="1.0" encoding="utf-8"?>
<!-- Generator: Adobe Illustrator 22.0.1, SVG Export Plug-In . SVG Version: 6.00 Build 0)  -->
<svg version="1.1" id="Layer_1" xmlns="http://www.w3.org/2000/svg" xmlns:xlink="http://www.w3.org/1999/xlink" x="0px" y="0px"
	 viewBox="0 0 963.5 681.5" style="enable-background:new 0 0 963.5 681.5;" xml:space="preserve">
<style type="text/css">
	.st0{clip-path:url(#SVGID_2_);}
	.st1{fill:#FEEEEE;}
	.st2{fill:#FCFEFD;}
	.st3{fill:#FFFFFF;stroke:#000000;stroke-width:0.5;stroke-miterlimit:10;}
	.st4{fill:#777BF9;stroke:#000000;stroke-width:0.5;stroke-miterlimit:10;}
	.st5{fill:none;stroke:#000000;stroke-linecap:round;stroke-miterlimit:10;}
	.st6{fill:#FFFFFF;stroke:#231F20;stroke-width:0.5;stroke-miterlimit:10;}
	.st7{fill:none;stroke:#000000;stroke-width:0.5;stroke-miterlimit:10;}
	.st8{fill:#FFFFFF;}
	.st9{fill:#055FA3;}
	.st10{fill:#086BBC;}
	.st11{fill:#314C9D;}
	.st12{fill:none;stroke:#FFFFFF;stroke-width:0.25;stroke-miterlimit:10;}
	.st13{fill:#3E2945;}
	.st14{fill:#475AA9;}
	.st15{fill:#A2AEEA;}
	.st16{fill:#FDBF1E;}
	.st17{fill:#EBB21B;}
	.st18{enable-background:new    ;}
	.st19{fill:#408DE4;}
	.st20{fill:#247CD3;}
</style>
<title>Asset 3ldpi</title>
<g>
	<defs>
		<rect id="SVGID_1_" x="-46.9" y="-15.2" width="1070.2" height="686.1"/>
	</defs>
	<clipPath id="SVGID_2_">
		<use xlink:href="#SVGID_1_"  style="overflow:visible;"/>
	</clipPath>
	<g class="st0">
		<path class="st1" d="M930.2,445.1c0,150.9-82.8,259.7-104.4,285.2C815,743,685.6,891.1,488.3,887
			c-173.7-3.6-284.9-107.8-315-139.1c-25.1-26.1-129.6-141-126.9-302.7C49.8,239.7,225.2,3.2,488.3,3.2
			C732.3,3.2,930.2,201.1,930.2,445.1z"/>
	</g>
</g>
<rect x="233.7" y="658.8" class="st2" width="378.5" height="8.4"/>
<path class="st3" d="M385.1,533.9c3-5.8,11.5-22.5,31.1-28.9c21.5-7,39.9,3.9,42.6,5.6c13.3,8.2,15.5,16.2,24.4,32
	c11.5,20.3,45.5,32.2,114.4,52.9c3.3,1,8.8,2.5,13.4,0.1c4.9-2.5,4.5-7.5,11-16.7c2-2.8,7.8-11.1,10.7-10c3.5,1.3-2,15.3,4.7,18.7
	c2.5,1.2,5.8,1,12.7,0c1-0.2,2-0.3,2.8-0.5c2.3-0.4,3.7-1.6,6.1-1.5h0.1l-23.8,32.7c-1.2-0.2-12.1-1.6-18.9-1.1
	c-1.9,0.2-3.6,0.4-3.6,0.4c-4.3,0.7-6.7,1.9-19.3,3.5c-3.4,0.4-4.6,0.5-11.3,1.2c-12.1,1.3-20.4,2.3-23.2,2.7
	c-27.8,3.3-74.5,2.7-100.1,0.6c-3.1-0.3-7.8-0.7-13.7-1.7c-9-1.7-17.9-4.1-26.5-7.2c-13.6-4.7-22.1-8.4-28.8-15.1
	C374,585.5,374.3,555,385.1,533.9z"/>
<path class="st3" d="M318.2,114.9c-26.1,96-52.8,123.6-73,130c-15.2,4.9-21.9,6-31.1,8.9c0,0-8.7,3.1-16.5,6.5
	C164,275.2,59.1,454.7,116.3,520.4c7.4,8.6,21.9,20,19.9,34.5c-2.3,16.8-25.2,26.5-24.1,50.8c0,0.7,0.1,0.8,0.1,1.6
	c2.1,34.1-7.8,42.4-15.8,59.7c93.9,21.4,187.7-12.9,281.4,8.4c0.6-29.9,3.6,0.9,15.2-51.4c27.4-123.4,77.1-173.8,50.9-235.7
	c-11.8-27.8-25.8-25.5-53.5-76.2c-14.5-26.6-25.7-54.8-33.4-84c-0.7-13.1-2.6-26.2-5.6-39C345.1,162.5,333.8,137.4,318.2,114.9z"/>
<path class="st4" d="M398.7,306.3c21.6,18.1,32.4,27.1,36.8,31.8c10.7,11.6,20.2,24.4,28.2,38c9.4,15.5,14.3,23.7,17.7,36.5
	c3.3,12.5,3,23,2.5,44c-0.1,12.4-1.2,24.8-3.3,37c-1.8,10.1-4.2,20-7.3,29.7c-13.9-3.3-28.2-4-42.3-2.2c-24.2,3.2-35,12.4-45.1,7.5
	c-12.4-6-12.1-29.5-11.4-45.4c1.5-29.5,7.6-77,31.9-140.1c-24.8-38.7-28.8-49.2-26.9-50.7C380.5,291.4,383.6,293.7,398.7,306.3z"/>
<path class="st4" d="M379.4,292.3c1.9-1.3,11.9,7.3,28.7,30.1c9.7,13.2,40.5,52.4,49.8,88c11.3,43.1-19.3,133.5-37.2,178.8
	c-11.4,28.9-32.4,69.8-42.5,86.3c-94-21.4-188,12.9-282.2-8.6c7.9-23,16.7-38.5,13.2-80.5c-4.4-52.1-23.5-64.2-29.7-122.3
	c-3-28.4-7-70.9,14.4-116.1c5.7-12,21.5-44.2,57.9-68.2c17.8-11.7,37.8-19.8,58.8-23.6c13.9,19.6,37.2,45.7,73,63.2
	c30.1,14.8,50.3,14.4,59.8,13.5c0.5,0,1.5-0.1,2.8-0.3c31-4.2,36.6-18.6,36.6-18.6C386.5,304,377.4,293.6,379.4,292.3z"/>
<path class="st4" d="M234,380.9c13.1,36.7,12.9,76.8-0.8,113.3"/>
<path class="st3" d="M454.8,646.1c1.2,0.9,3.2,0.4,4.4-0.6c4.5-3.4-0.7-17-2.9-22.7c-4.7-11.8-7.9-20-15.3-26.6
	c-10.6-9.5-23.3-9.8-34.3-11.3c-9.4-1.2-27.7-8.6-64.1-23.3c-19.9-7.9-55.8-25.9-104.4-69.3c-6.9-4.8-28-18.3-56.3-15.9
	c-3.5,0.3-52.8,5.2-65.6,44c-8.8,26.8,6.2,51.3,8.9,55.8c11.6,11,24.9,19.9,39.5,26.4c11.5,5,22,7.8,35,10.2
	c25.3,4.6,63.3,11.4,109.3,3.4c21.4-3.9,43.4-4.2,64.2-10.4c6.4-1.9,12.1-3.3,19-1.3c15.9,4.8,24,25.3,31.5,22.8
	c2-0.7,2.5-2.6,4.6-2.5c4.9,0.2,6.8,10.6,9.6,10.3c2.6-0.4,4-9.8,4.1-10c1.4,3.1,3,6.1,4.7,9C449.2,638.6,453.5,645.2,454.8,646.1z"
	/>
<path d="M369.7,209.7c1.3-7.5,3.5-21.2-4-30.8c0,0-0.6-0.7-1.3-1.4c-15.3-14.9-60.4,1.9-63.1-4.5c-0.9-2.2,4.3-4,6.9-10.9
	c4.5-12.3-4.1-28.8-9.6-28.6c-1.9,0.1-5.2,5.6-11.6,16.6c-0.6,1.1-3.3,5.6-4.4,7.7c-17.6,33.3-12,60.5-12,60.5
	c5.2,25.3,28.8,46.3,58.7,55.2l34.5-12.8C365.6,239.5,367.5,223.2,369.7,209.7z"/>
<path class="st3" d="M330.7,179.7c-20.2-2.3-32.4,13.9-40.2,7.9c-5.2-4-3.7-14.5-2.4-23.8c2-14,5.9-15.7,10.1-30
	c7.4-24.8,2.7-40.8,13.5-48.1c0.3-0.2,0.6-0.4,0.9-0.5c9.8-3.6,16.7,8,33.1,10.8c14.5,2.5,18-1.6,23.3,2.3c4.4,3.2,7,9.8,1.4,53.9
	c-4,31-6.4,36.5-10.9,38.1C351.4,193.2,346.6,181.5,330.7,179.7z"/>
<path d="M269.9,57c-4.8,7.7,1.2,12.4,2.6,39.5c1.5,28.9-4.3,43.4,3.6,48.2c6.6,4.1,17-2.2,17.5-2.5c3.5-2.1,7.5-5.9,11.7-17.9
	c4.2-12.2,6.1-25.1,5.5-38c3.9,1.6,9.7,3.8,16.9,5.9c1.1,0.3,27.6,8,41.4,6.9c34.5-2.7,66-65.9,54.4-78.2
	C414,11.2,278,43.9,269.9,57z"/>
<path class="st3" d="M320.9,189.7c-1.4,2.2,4.1,15.5,13.7,18.8c8.7,3,18.4-3.3,18.2-5.8c-0.1-1.9-5-0.9-14.4-4.3
	C326.8,193.8,322,187.9,320.9,189.7z"/>
<path class="st5" d="M380.6,124.4c-10.6-11.5-23-6.5-23-6.5"/>
<path class="st5" d="M344.4,115.6c-12.7-9.1-23.9-1.8-23.9-1.8"/>
<path class="st6" d="M281.9,161c-4.6-0.1-11-12.1-11.5-23.1c-0.7-10.8,4.2-23.5,10.3-23.4c4.9,0,9.7,7.9,11.4,12.8
	c2.4,6.5,0.5,11.6-3.1,21.6C286,157.1,284.4,161,281.9,161z"/>
<circle cx="324.9" cy="133.7" r="5.4"/>
<circle cx="367.4" cy="139.1" r="5.4"/>
<path class="st7" d="M280.4,132.2c-1.8-0.2-3.4,1.1-3.6,2.9c-0.7,3.3-1.5,6.9,0,8s2.9-1.1,3.6-1.4"/>
<circle class="st8" cx="327.1" cy="134.4" r="1.9"/>
<circle class="st8" cx="369.4" cy="139.8" r="1.9"/>
<polygon class="st8" points="313,115.9 288.4,103.7 309.4,116.9 "/>
<path class="st7" d="M348.6,129.9l3.4,51c-0.8,0.1-1.5,0.1-2.3,0c-3.5-0.5-6.8-2.3-9.2-4.9"/>
<path class="st9" d="M331.9,202.1c2.3-0.4,4.6-1.1,6.9-1.9c2.2-1,4.5-1.8,6.9-2.4c1.2-0.4,2.4-0.5,3.6-0.5c2.5,0.1,6.3,1.6,7.6,5.1
	c1.5,4-1.1,7.6-1.3,7.8c-2.8,3.7-7.8,3.6-9.7,3.6c-3.5-0.1-6.8-1.2-9.8-3c-1.2-0.9-2.4-1.6-3.7-2.2c-3.1-1.3-5.9-0.8-6.9-1
	c-6.7-1.3-15.4-7.7-21.4-12.5c-2.3-1.9-5.6-4.7-9.2-8.2c-0.6-0.2-1.1-0.4-1.7-0.5c-7.7-1.6-12.4,6.6-19.2,6.5c-5.8-0.1-10-4-13-6.6
	c-13.1-11.9-15.9-34.7-9.9-52.6c2.7-8.1,7.2-15.4,13.1-21.6c0.3-0.3,0.5-0.7,0.7-1.2c1.8-6.4,4-12.8,6.5-19
	c3.4-8.5,7.5-16.7,12.1-24.6c1.9-3.2,20.3-28.2,21.6-30.3c0.2-0.3,0.5-0.6,0.9-0.9c2.2-1.4,4.7-2.3,7.3-2.8l0.9-0.2
	c1.6-0.1,3,1.1,3.1,2.7c0.1,0.9-0.3,1.7-0.9,2.3c-1.7,1.4-3,3.3-3.6,3.5c-6.5,3.2-14.3,19.4-21.3,34.5c0,0-12.3,26.1-9.3,36.9
	c0.3,1.2,0.9,2.3,1.6,3.3c1.9,0.8,3.6,1.9,5.2,3.3c3.5,3.1,5.1,6.9,6.4,11.1c2.1,6.6,5.1,16,4.5,29.7c-0.3,6.1-1.2,12.2-2.9,18.2
	c-0.2,0.7-0.1,1.4,0.2,2.1c2.3,4.3,5.3,8.2,9,11.4c3.9,3.4,8.5,6.1,13.4,7.8C323.7,201.5,327.4,202.8,331.9,202.1z"/>
<path class="st10" d="M334.5,202.6c2.8-1,3.3-2.1,7.5-3.4s8.2-2.7,11.6-0.6c2.5,1.5,4,4.2,4,7.2c-0.1,4.5-4.5,7-5,7.3
	c-3.6,2-7.7,1.1-13.6-0.2c-3.6-0.8-4-1.3-8.2-2.4c-5.5-1.4-8-1.3-11.1-1.9c-6.7-1.3-15.4-7.7-21.4-12.5c-2.3-1.9-5.6-4.7-9.2-8.2
	c-0.6-0.2-1.1-0.4-1.7-0.5c-7.7-1.6-12.4,6.6-19.2,6.5c-5.8-0.1-10-4-13-6.6c-13.1-11.9-15.8-34.7-9.9-52.6
	c2.7-8.1,7.2-15.4,13.1-21.6c0.3-0.3,0.6-0.7,0.7-1.2c1.8-6.5,4-12.8,6.5-19.1c3.5-8.4,7.5-16.6,12.1-24.5c2-3.6,20.6-28.9,22-31.2
	c0.3-0.4,0.6-0.8,1.1-1c2.6-1.4,5.3-2.3,8.1-2.8h0.1c1.6-0.2,3.1,0.9,3.3,2.5c0.1,1-0.2,2-1,2.6c-1.5,1.3-2.9,2.8-4.2,4.4
	c-5.2,6.9-15.6,21.4-22.5,36.2c0,0-11.2,24.2-8.2,35.3c0.3,1.2,0.9,2.3,1.6,3.3c1.9,0.8,3.6,1.9,5.2,3.3c3.5,3.1,5.1,6.9,6.4,11.1
	c4.9,14.8,5.8,30.7,2.6,46c-0.2,0.8,0,1.7,0.5,2.3c2.4,3.1,5,6.1,7.8,8.8c4.5,4.5,8.3,8.5,14.7,11.2
	C319.8,202.1,327.3,205.2,334.5,202.6z"/>
<path class="st11" d="M284.6,169.1c-2.4-3.6-4.6-7.3-6.5-11.1c-0.4-0.8-0.4-1.8,0-2.6c1.7-3.7,1.3-7.9-1-11.3
	c-0.3-0.4-3.3-4.3-8-4.1s-8.5,4.3-9,8.6c-0.6,4.8,2.7,9.8,8,11.5c0.6,0.2,1.2,0.5,1.5,1c4.8,6.5,8.5,11.5,10.9,14.8
	c4.5,6.2,6.7,9.2,10.4,13.1c2.1,2.1,4.3,4.2,6.6,6.1c1.2,1,3.1,0.8,4.1-0.4v-0.1l0.4-0.6c0.9-1.1,0.8-2.7-0.1-3.7l-4.2-4.7
	c-1.2-1.4-3-3.4-4.7-5.5C290.1,176.6,287.3,172.9,284.6,169.1z"/>
<ellipse transform="matrix(0.9947 -0.1028 0.1028 0.9947 -13.9893 28.4828)" class="st12" cx="269.4" cy="150" rx="4.2" ry="4.1"/>
<path class="st2" d="M862.5,667.2H470.7c-8.6,0-15.6-7-15.6-15.6c0,0,0,0,0,0c0-1,0.1-2,0.3-3l46-233.6c1.4-7.3,7.8-12.6,15.3-12.6
	h391.8c8.6,0,15.6,7,15.6,15.6c0,1-0.1,2-0.3,3l-46,233.6C876.3,661.9,869.9,667.2,862.5,667.2z"/>
<polygon class="st13" points="648.6,554.4 648.6,667.2 684.8,667.2 "/>
<path class="st2" d="M583.3,668.1h77.5c23.9,0,15.1-21.8,21.6,7l-34.1-120.7l65.3-0.5l18.6,127.3h-149L583.3,668.1z"/>
<path class="st14" d="M481.4,648.6l46-233.6c1.4-7.3,7.8-12.5,15.3-12.6H517c-7.4,0-13.9,5.3-15.3,12.6l-46,233.6
	c-1.7,8.4,3.8,16.6,12.3,18.3c1,0.2,2,0.3,3,0.3h25.6c-8.6,0-15.6-7-15.6-15.6C481.1,650.6,481.2,649.6,481.4,648.6z"/>
<path class="st14" d="M697.5,681.1h80.4c31.3,0,28-12.7,32.9,8.9l-34.1-136.6H662.6L696.7,688c-4.9-21.6-1.6-6.8-32.9-6.8
	L697.5,681.1z"/>
<rect x="569.1" y="477.5" transform="matrix(0.2173 -0.9761 0.9761 0.2173 8.4735 969.8782)" class="st13" width="79.8" height="4.3"/>
<rect x="591.1" y="477.5" transform="matrix(0.2173 -0.9761 0.9761 0.2173 25.7101 991.3824)" class="st13" width="79.8" height="4.3"/>
<rect x="613.2" y="477.5" transform="matrix(0.2173 -0.9761 0.9761 0.2173 42.9692 1012.9035)" class="st13" width="79.8" height="4.3"/>
<rect x="635.2" y="477.5" transform="matrix(0.2173 -0.9761 0.9761 0.2173 60.2152 1034.4198)" class="st13" width="79.8" height="4.3"/>
<rect x="657.2" y="477.5" transform="matrix(0.2173 -0.9761 0.9761 0.2173 77.4748 1055.947)" class="st13" width="79.8" height="4.3"/>
<rect x="679.3" y="477.5" transform="matrix(0.2173 -0.9761 0.9761 0.2173 94.7187 1077.4646)" class="st13" width="79.8" height="4.3"/>
<rect x="701.3" y="477.5" transform="matrix(0.2173 -0.9761 0.9761 0.2173 111.9801 1098.9843)" class="st13" width="79.8" height="4.3"/>
<rect x="723.4" y="477.5" transform="matrix(0.2173 -0.9761 0.9761 0.2173 129.2195 1120.467)" class="st13" width="79.8" height="4.3"/>
<rect x="745.4" y="477.5" transform="matrix(0.2173 -0.9761 0.9761 0.2173 146.48 1141.9904)" class="st13" width="79.8" height="4.3"/>
<rect x="767.4" y="477.5" transform="matrix(0.2173 -0.9761 0.9761 0.2173 163.7266 1163.4867)" class="st13" width="79.8" height="4.3"/>
<rect y="667.2" class="st15" width="963.5" height="14.2"/>
<path class="st16" d="M657,344.9l25.1-47.9v-90.7c0-9,7.3-16.4,16.4-16.4c0,0,0,0,0,0h205c9,0,16.4,7.3,16.4,16.4c0,0,0,0,0,0v101.5
	c0,9-7.3,16.4-16.4,16.4c0,0,0,0,0,0H709L657,344.9z"/>
<path class="st17" d="M692.4,309.2h196.1c9,0,16.4-7.3,16.4-16.4c0,0,0,0,0,0V190.2c0-0.5,0-1-0.1-1.5c8.5,0.8,15,7.9,15,16.4v102.6
	c0,9-7.3,16.4-16.3,16.4H707.3l-52.4,21l0,0L692.4,309.2z"/>
<g class="st18">
	<path class="st8" d="M748.6,266.3v7.9h-31.7V268l16.2-15.3c1.7-1.6,2.9-3,3.5-4.2c0.6-1.2,0.9-2.3,0.9-3.5c0-1.7-0.6-3-1.7-3.9
		c-1.1-0.9-2.8-1.3-5-1.3c-1.8,0-3.5,0.4-5,1c-1.5,0.7-2.7,1.8-3.7,3.1l-7.1-4.6c1.6-2.4,3.9-4.3,6.8-5.7c2.9-1.4,6.2-2.1,9.9-2.1
		c3.1,0,5.8,0.5,8.2,1.5c2.3,1,4.2,2.5,5.5,4.3c1.3,1.9,1.9,4,1.9,6.6c0,2.3-0.5,4.4-1.4,6.4c-1,2-2.8,4.3-5.6,6.8l-9.7,9.1H748.6z"
		/>
</g>
<g class="st18">
	<path class="st8" d="M791.3,265.4h-6.8v8.8H775v-8.8h-22.6v-6.5l19.8-26.6h10.2L764,257.5h11.3v-7.9h9.2v7.9h6.8V265.4z"/>
	<path class="st8" d="M826.6,223.7h8.3l-19.8,56.5h-8.3L826.6,223.7z"/>
	<path class="st8" d="M884.5,232.3v6.3l-15.6,35.7h-10.6l15.1-34.1h-13.9v6.8h-8.6v-14.8H884.5z"/>
</g>
<path class="st19" d="M561.4,211.9c35.6,0,64.5,28.9,64.4,64.5c0,9.5-2.1,18.8-6.1,27.4l20.3,38.7L601.3,327
	c-27.9,22.1-68.4,17.3-90.5-10.6c-22.1-27.9-17.3-68.4,10.6-90.5C532.8,216.9,546.9,212,561.4,211.9L561.4,211.9z"/>
<path class="st20" d="M505.4,244.6c-10.2,34.1,9.1,70,43.2,80.2c20.1,6,41.9,1.9,58.4-11.1l33,28.8l0,0L601.3,327
	c-27.9,22-68.5,17.3-90.5-10.7C494.6,295.7,492.4,267.4,505.4,244.6L505.4,244.6z"/>
<path class="st8" d="M579.1,277.2c0,4.3,3.4,7.7,7.7,7.7c4.3,0,7.7-3.4,7.7-7.7c0-4.3-3.4-7.7-7.7-7.7c0,0,0,0,0,0
	C582.6,269.5,579.2,273,579.1,277.2z"/>
<path class="st8" d="M554.9,277.2c0,4.3,3.4,7.7,7.7,7.7c4.3,0,7.7-3.4,7.7-7.7c0-4.3-3.4-7.7-7.7-7.7c0,0,0,0,0,0
	C558.3,269.5,554.9,273,554.9,277.2z"/>
<path class="st8" d="M530.6,277.2c0,4.3,3.4,7.7,7.7,7.7c4.3,0,7.7-3.4,7.7-7.7c0-4.3-3.4-7.7-7.7-7.7c0,0,0,0,0,0
	C534.1,269.5,530.6,273,530.6,277.2z"/>
</svg>
