<?xml version="1.0" encoding="UTF-8"?>
<!-- Generator: Adobe Illustrator 22.0.1, SVG Export Plug-In . SVG Version: 6.00 Build 0)  -->
<svg version="1.1" id="Layer_1" xmlns="http://www.w3.org/2000/svg" xmlns:xlink="http://www.w3.org/1999/xlink" x="0px" y="0px" viewBox="0 0 640 677" style="enable-background:new 0 0 640 677;" xml:space="preserve">
<style type="text/css">
	.st0{fill:#FFFFFF;fill-opacity:0;}
	.st1{fill:#E8E8E8;}
	.st2{opacity:0.9;}
	.st3{fill:#0B0916;}
	.st4{fill:#171A45;}
	.st5{fill:#2F3354;}
	.st6{fill:#060A16;}
	.st7{fill:#1D1E4E;}
	.st8{fill:#565C7C;}
	.st9{fill:#1B1E49;}
	.st10{fill:#595F7F;}
	.st11{fill:#FEFCFF;}
	.st12{fill:#171B41;}
	.st13{fill:#090712;}
	.st14{fill:#020202;}
	.st15{fill:#FFFFFF;stroke:#000000;stroke-width:0.5;stroke-miterlimit:10;}
	.st16{fill:none;stroke:#000000;stroke-width:0.5;stroke-miterlimit:10;}
	.st17{fill:#FFFFFF;}
	.st18{fill:none;stroke:#000000;stroke-linecap:round;stroke-miterlimit:10;}
	.st19{fill:#020202;stroke:#000000;stroke-width:0.5;stroke-miterlimit:10;}
	.st20{fill:#CE5511;}
	.st21{fill:#F77D2B;}
	.st22{fill:#E86B18;}
</style>
<g id="background">
	<rect class="st0" width="640" height="677"/>
</g>
<ellipse id="footer_bg" class="st1" cx="321" cy="575.5" rx="318" ry="78.9"/>
<g id="server" class="st2">
	<rect x="21.6" y="75" class="st3" width="195.4" height="447.4"/>
	<rect x="9.5" y="86.1" class="st4" width="219" height="410.5"/>
	<rect x="44" y="101.5" class="st5" width="175.5" height="401.1"/>
	<rect x="19.3" y="503.2" class="st6" width="27.7" height="20.5"/>
	<rect x="49.1" y="245.9" class="st7" width="177.9" height="41.6"/>
	
		<rect x="118.7" y="180.5" transform="matrix(4.798820e-03 -1 1 4.798820e-03 -129.6402 403.1688)" class="st8" width="38" height="172.5"/>
	<path class="st9" d="M67,282.7h55.3c6.2,0,11.2-5,11.2-11.3v-5.2c0-6.2-5-11.3-11.2-11.3H67c-6.2,0-11.3,5-11.3,11.3v5.2   C55.7,277.6,60.8,282.7,67,282.7z"/>
	<path class="st10" d="M66.1,272.1h23.3c1.7,0,3.1-1.4,3.1-3.1v-0.6c0-1.7-1.4-3.1-3.1-3.1H66.1c-1.7,0-3.1,1.4-3.1,3.1v0.6   C63,270.7,64.4,272.1,66.1,272.1z"/>
	<circle class="st11" cx="206.2" cy="267.9" r="9"/>
	<circle class="st12" cx="183" cy="268.8" r="3.9"/>
	<circle class="st12" cx="170.9" cy="268.8" r="3.9"/>
	<circle class="st12" cx="145.6" cy="268.8" r="3.9"/>
	<circle class="st11" cx="158.9" cy="268.8" r="3.9"/>
	<rect x="48.5" y="201.9" class="st7" width="177.9" height="41.6"/>
	
		<rect x="118.2" y="136.4" transform="matrix(4.798820e-03 -1 1 4.798820e-03 -86.0914 358.7017)" class="st8" width="38" height="172.5"/>
	<path class="st9" d="M66.4,238.6h55.3c6.2,0,11.3-5,11.3-11.3v-5.2c0-6.2-5-11.3-11.3-11.3H66.4c-6.2,0-11.3,5-11.3,11.3v5.2   C55.1,233.6,60.2,238.6,66.4,238.6z"/>
	<path class="st10" d="M65.5,228.1h23.3c1.7,0,3.1-1.4,3.1-3.1v-0.6c0-1.7-1.4-3.1-3.1-3.1H65.5c-1.7,0-3.1,1.4-3.1,3.1v0.6   C62.4,226.7,63.8,228.1,65.5,228.1z"/>
	<circle class="st11" cx="205.6" cy="223.9" r="9"/>
	<circle class="st12" cx="182.4" cy="224.8" r="3.9"/>
	<circle class="st12" cx="170.3" cy="224.8" r="3.9"/>
	<circle class="st12" cx="145" cy="224.8" r="3.9"/>
	<circle class="st11" cx="158.3" cy="224.8" r="3.9"/>
	<rect x="50.4" y="331.6" class="st7" width="177.9" height="41.6"/>
	
		<rect x="119.9" y="266.1" transform="matrix(4.798820e-03 -1 1 4.798820e-03 -214.087 489.5673)" class="st8" width="38" height="172.5"/>
	<path class="st9" d="M68.2,368.3h55.3c6.2,0,11.3-5,11.3-11.3v-5.2c0-6.2-5-11.3-11.3-11.3H68.2c-6.2,0-11.3,5-11.3,11.3v5.2   C56.9,363.3,62,368.3,68.2,368.3z"/>
	<path class="st10" d="M67.3,357.8h23.3c1.7,0,3.1-1.4,3.1-3.1V354c0-1.7-1.4-3.1-3.1-3.1H67.3c-1.7,0-3.1,1.4-3.1,3.1v0.6   C64.2,356.4,65.6,357.8,67.3,357.8z"/>
	<circle class="st11" cx="207.4" cy="353.6" r="9"/>
	<circle class="st12" cx="184.2" cy="354.5" r="3.9"/>
	<circle class="st12" cx="172.2" cy="354.5" r="3.9"/>
	<circle class="st12" cx="146.8" cy="354.5" r="3.9"/>
	<circle class="st11" cx="160.1" cy="354.5" r="3.9"/>
	<rect x="49.7" y="373.1" class="st7" width="177.9" height="41.6"/>
	
		<rect x="119.4" y="307.7" transform="matrix(4.798820e-03 -1 1 4.798820e-03 -256.1568 530.4736)" class="st8" width="38" height="172.5"/>
	<path class="st9" d="M67.6,410h55.3c6.2,0,11.3-5,11.3-11.3v-5.2c0-6.2-5-11.3-11.3-11.3H67.6c-6.2,0-11.3,5-11.3,11.3v5.2   C56.3,404.9,61.4,410,67.6,410z"/>
	<path class="st10" d="M66.7,399.4H90c1.7,0,3.1-1.4,3.1-3.1v-0.6c0-1.7-1.4-3.1-3.1-3.1H66.7c-1.7,0-3.1,1.4-3.1,3.1v0.6   C63.6,398,65,399.4,66.7,399.4z"/>
	<circle class="st11" cx="206.8" cy="395.2" r="9"/>
	<circle class="st12" cx="183.6" cy="396.1" r="3.9"/>
	<circle class="st12" cx="171.5" cy="396.1" r="3.9"/>
	<circle class="st12" cx="146.2" cy="396.1" r="3.9"/>
	<circle class="st11" cx="159.5" cy="396.1" r="3.9"/>
	<circle class="st11" cx="159.5" cy="484.1" r="3.9"/>
	<rect x="49.7" y="461.3" class="st7" width="177.9" height="41.6"/>
	
		<rect x="119.4" y="395.8" transform="matrix(4.798820e-03 -1 1 4.798820e-03 -344.323 618.0831)" class="st8" width="38" height="172.5"/>
	<path class="st9" d="M67.6,498h55.3c6.2,0,11.3-5,11.3-11.3v-5.2c0-6.2-5-11.3-11.3-11.3H67.6c-6.2,0-11.3,5-11.3,11.3v5.2   C56.3,493,61.4,498,67.6,498z"/>
	<path class="st10" d="M66.7,487.5H90c1.7,0,3.1-1.4,3.1-3.1v-0.6c0-1.7-1.4-3.1-3.1-3.1H66.7c-1.7,0-3.1,1.4-3.1,3.1v0.6   C63.6,486.1,65,487.5,66.7,487.5z"/>
	<circle class="st11" cx="206.8" cy="483.2" r="9"/>
	<circle class="st12" cx="183.6" cy="484.1" r="3.9"/>
	<circle class="st12" cx="171.5" cy="484.1" r="3.9"/>
	<circle class="st12" cx="146.2" cy="484.1" r="3.9"/>
	<rect x="50.4" y="290" class="st7" width="177.9" height="41.6"/>
	
		<rect x="120" y="224.5" transform="matrix(4.798820e-03 -1 1 4.798820e-03 -172.4056 448.2494)" class="st8" width="38" height="172.5"/>
	<path class="st9" d="M68.2,326.7h55.3c6.2,0,11.3-5,11.3-11.3v-5.2c0-6.2-5-11.3-11.3-11.3H68.2c-6.2,0-11.3,5-11.3,11.3v5.2   C56.9,321.7,62,326.7,68.2,326.7z"/>
	<path class="st10" d="M67.3,316.2h23.3c1.7,0,3.1-1.4,3.1-3.1v-0.6c0-1.7-1.4-3.1-3.1-3.1H67.3c-1.7,0-3.1,1.4-3.1,3.1v0.6   C64.2,314.7,65.6,316.2,67.3,316.2z"/>
	<circle class="st11" cx="207.4" cy="311.9" r="9"/>
	<circle class="st12" cx="184.2" cy="312.8" r="3.9"/>
	<circle class="st12" cx="146.8" cy="312.8" r="3.9"/>
	<circle class="st11" cx="160.1" cy="312.8" r="3.9"/>
	<rect x="49.5" y="416.1" class="st7" width="177.9" height="41.6"/>
	
		<rect x="119.1" y="350.7" transform="matrix(4.798820e-03 -1 1 4.798820e-03 -299.4619 572.9719)" class="st8" width="38" height="172.5"/>
	<path class="st9" d="M67.3,453h55.3c6.2,0,11.3-5,11.3-11.3v-5.2c0-6.2-5-11.3-11.3-11.3H67.3c-6.2,0-11.3,5-11.3,11.3v5.2   C56.1,447.9,61.1,453,67.3,453z"/>
	<path class="st10" d="M66.4,442.4h23.3c1.7,0,3.1-1.4,3.1-3.1v-0.6c0-1.7-1.4-3.1-3.1-3.1H66.4c-1.7,0-3.1,1.4-3.1,3.1v0.6   C63.3,441,64.7,442.4,66.4,442.4z"/>
	<circle class="st11" cx="206.6" cy="438.2" r="9"/>
	<circle class="st12" cx="183.3" cy="439.1" r="3.9"/>
	<circle class="st12" cx="171.3" cy="439.1" r="3.9"/>
	<circle class="st12" cx="145.9" cy="439.1" r="3.9"/>
	<circle class="st11" cx="159.2" cy="439.1" r="3.9"/>
	<circle class="st12" cx="172.2" cy="312.8" r="3.9"/>
	<g id="rack">
		<rect x="48.7" y="156.6" class="st7" width="177.9" height="41.6"/>
		
			<rect x="118.4" y="91.2" transform="matrix(4.798820e-03 -1 1 4.798820e-03 -40.6581 314.0029)" class="st8" width="38" height="172.5"/>
		<path class="st9" d="M66.6,193.4h55.3c6.2,0,11.3-5,11.3-11.3v-5.2c0-6.2-5-11.3-11.3-11.3H66.6c-6.2,0-11.3,5-11.3,11.3v5.2    C55.3,188.4,60.4,193.4,66.6,193.4z"/>
		<path class="st10" d="M65.7,182.8H89c1.7,0,3.1-1.4,3.1-3.1v-0.6c0-1.7-1.4-3.1-3.1-3.1H65.7c-1.7,0-3.1,1.4-3.1,3.1v0.6    C62.6,181.4,64,182.8,65.7,182.8z"/>
		<circle class="st11" cx="205.8" cy="178.6" r="9"/>
		<circle class="st12" cx="182.6" cy="179.5" r="3.9"/>
		<circle class="st12" cx="170.5" cy="179.5" r="3.9"/>
		<circle class="st12" cx="145.2" cy="179.5" r="3.9"/>
		<circle class="st11" cx="158.5" cy="179.5" r="3.9"/>
	</g>
	<g id="rack_1_">
		<rect x="48.7" y="112.6" class="st7" width="177.9" height="41.6"/>
		
			<rect x="118.4" y="47.2" transform="matrix(4.798820e-03 -1 1 4.798820e-03 3.3409 270.2126)" class="st8" width="38" height="172.5"/>
		<path class="st9" d="M66.6,149.4h55.3c6.2,0,11.3-5,11.3-11.3v-5.2c0-6.2-5-11.3-11.3-11.3H66.6c-6.2,0-11.3,5-11.3,11.3v5.2    C55.3,144.4,60.4,149.4,66.6,149.4z"/>
		<path class="st10" d="M65.7,138.8H89c1.7,0,3.1-1.4,3.1-3.1v-0.6c0-1.7-1.4-3.1-3.1-3.1H65.7c-1.7,0-3.1,1.4-3.1,3.1v0.6    C62.6,137.4,64,138.8,65.7,138.8z"/>
		<circle class="st11" cx="205.8" cy="134.6" r="9"/>
		<circle class="st12" cx="182.6" cy="135.5" r="3.9"/>
		<circle class="st12" cx="170.5" cy="135.5" r="3.9"/>
		<circle class="st12" cx="145.2" cy="135.5" r="3.9"/>
		<circle class="st11" cx="158.5" cy="135.5" r="3.9"/>
	</g>
</g>
<g id="Layer_2_2_">
	<rect x="191.4" y="40.5" class="st3" width="222.9" height="511.1"/>
	<rect x="177.5" y="53.2" class="st4" width="249.8" height="468.7"/>
	<rect x="216.8" y="71.3" class="st5" width="200.2" height="458"/>
	<rect x="188.5" y="529.6" class="st6" width="31.7" height="23.4"/>
	<rect x="222.6" y="236.2" class="st7" width="203" height="47.5"/>
	
		<rect x="302.1" y="161.5" transform="matrix(4.798820e-03 -1 1 4.798820e-03 62.2822 582.4406)" class="st8" width="43.4" height="196.8"/>
	<path class="st9" d="M241.4,278.2h66.3c6.2,0,11.3-5,11.3-11.3v-9.2c0-6.2-5-11.3-11.3-11.3h-66.3c-6.2,0-11.3,5-11.3,11.3v9.2   C230.2,273.1,235.2,278.2,241.4,278.2z"/>
	<path class="st10" d="M241.6,266.1H269c1.7,0,3.1-1.4,3.1-3.1v-1.6c0-1.7-1.4-3.1-3.1-3.1h-27.4c-1.7,0-3.1,1.4-3.1,3.1v1.6   C238.4,264.7,239.9,266.1,241.6,266.1z"/>
	<circle class="st11" cx="401.9" cy="261.3" r="10.3"/>
	<circle class="st12" cx="375.4" cy="262.3" r="4.5"/>
	<circle class="st12" cx="361.6" cy="262.3" r="4.5"/>
	<circle class="st12" cx="332.7" cy="262.3" r="4.5"/>
	<circle class="st11" cx="347.8" cy="262.3" r="4.5"/>
	<rect x="221.9" y="185.9" class="st7" width="203" height="47.5"/>
	
		<rect x="301.4" y="111.4" transform="matrix(4.798820e-03 -1 1 4.798820e-03 111.7468 531.8364)" class="st8" width="43.4" height="196.8"/>
	<path class="st9" d="M240.8,227.9H307c6.2,0,11.3-5,11.3-11.3v-9.2c0-6.2-5-11.3-11.3-11.3h-66.3c-6.2,0-11.3,5-11.3,11.3v9.2   C229.5,222.9,234.5,227.9,240.8,227.9z"/>
	<path class="st10" d="M240.9,215.9h27.4c1.7,0,3.1-1.4,3.1-3.1v-1.6c0-1.7-1.4-3.1-3.1-3.1h-27.4c-1.7,0-3.1,1.4-3.1,3.1v1.6   C237.8,214.5,239.2,215.9,240.9,215.9z"/>
	<circle class="st11" cx="401.2" cy="211.1" r="10.3"/>
	<circle class="st12" cx="374.7" cy="212.1" r="4.5"/>
	<circle class="st12" cx="360.9" cy="212.1" r="4.5"/>
	<circle class="st12" cx="332" cy="212.1" r="4.5"/>
	<circle class="st11" cx="347.2" cy="212.1" r="4.5"/>
	<rect x="224" y="333.9" class="st7" width="203" height="47.5"/>
	
		<rect x="303.5" y="259.1" transform="matrix(4.798820e-03 -1 1 4.798820e-03 -33.9372 680.9693)" class="st8" width="43.4" height="196.8"/>
	<path class="st9" d="M242.8,375.9h66.3c6.2,0,11.3-5,11.3-11.3v-9.2c0-6.2-5-11.3-11.3-11.3h-66.3c-6.2,0-11.3,5-11.3,11.3v9.2   C231.6,370.8,236.6,375.9,242.8,375.9z"/>
	<path class="st10" d="M243,363.8h27.4c1.7,0,3.1-1.4,3.1-3.1v-1.6c0-1.7-1.4-3.1-3.1-3.1H243c-1.7,0-3.1,1.4-3.1,3.1v1.6   C239.8,362.4,241.2,363.8,243,363.8z"/>
	<circle class="st11" cx="403.2" cy="359" r="10.3"/>
	<circle class="st12" cx="376.7" cy="360" r="4.5"/>
	<circle class="st12" cx="363" cy="360" r="4.5"/>
	<circle class="st12" cx="334.1" cy="360" r="4.5"/>
	<circle class="st11" cx="349.2" cy="360" r="4.5"/>
	<rect x="223.3" y="381.3" class="st7" width="203" height="47.5"/>
	
		<rect x="302.7" y="306.7" transform="matrix(4.798820e-03 -1 1 4.798820e-03 -82.2787 727.4902)" class="st8" width="43.4" height="196.8"/>
	<path class="st9" d="M242.1,423.3h66.3c6.2,0,11.3-5,11.3-11.3v-9.2c0-6.2-5-11.3-11.3-11.3h-66.3c-6.2,0-11.3,5-11.3,11.3v9.2   C230.9,418.3,235.9,423.3,242.1,423.3z"/>
	<path class="st10" d="M242.3,411.3h27.4c1.7,0,3.1-1.4,3.1-3.1v-1.6c0-1.7-1.4-3.1-3.1-3.1h-27.4c-1.7,0-3.1,1.4-3.1,3.1v1.6   C239.1,409.9,240.5,411.3,242.3,411.3z"/>
	<circle class="st11" cx="402.5" cy="406.5" r="10.3"/>
	<circle class="st12" cx="376.1" cy="407.5" r="4.5"/>
	<circle class="st12" cx="362.3" cy="407.5" r="4.5"/>
	<circle class="st12" cx="333.4" cy="407.5" r="4.5"/>
	<circle class="st11" cx="348.5" cy="407.5" r="4.5"/>
	<circle class="st11" cx="348.5" cy="508" r="4.5"/>
	<rect x="223.3" y="481.8" class="st7" width="203" height="47.5"/>
	
		<rect x="302.6" y="407.1" transform="matrix(4.798820e-03 -1 1 4.798820e-03 -182.6956 827.3929)" class="st8" width="43.4" height="196.8"/>
	<path class="st9" d="M242.1,523.8h66.3c6.2,0,11.3-5,11.3-11.3v-9.2c0-6.2-5-11.3-11.3-11.3h-66.3c-6.2,0-11.3,5-11.3,11.3v9.2   C230.9,518.8,235.9,523.8,242.1,523.8z"/>
	<path class="st10" d="M242.3,511.8h27.4c1.7,0,3.1-1.4,3.1-3.1V507c0-1.7-1.4-3.1-3.1-3.1h-27.4c-1.7,0-3.1,1.4-3.1,3.1v1.6   C239.1,510.4,240.5,511.8,242.3,511.8z"/>
	<circle class="st11" cx="402.5" cy="506.9" r="10.3"/>
	<circle class="st12" cx="376.1" cy="508" r="4.5"/>
	<circle class="st12" cx="362.3" cy="508" r="4.5"/>
	<circle class="st12" cx="333.4" cy="508" r="4.5"/>
	<rect x="224" y="286.4" class="st7" width="203" height="47.5"/>
	
		<rect x="303.5" y="211.7" transform="matrix(4.798820e-03 -1 1 4.798820e-03 13.463 633.7956)" class="st8" width="43.4" height="196.8"/>
	<path class="st9" d="M242.8,328.4h66.3c6.2,0,11.3-5,11.3-11.3V308c0-6.2-5-11.3-11.3-11.3h-66.3c-6.2,0-11.3,5-11.3,11.3v9.2   C231.6,323.4,236.6,328.4,242.8,328.4z"/>
	<path class="st10" d="M243,316.4h27.4c1.7,0,3.1-1.4,3.1-3.1v-1.6c0-1.7-1.4-3.1-3.1-3.1H243c-1.7,0-3.1,1.4-3.1,3.1v1.6   C239.8,314.9,241.2,316.4,243,316.4z"/>
	<circle class="st11" cx="403.2" cy="311.5" r="10.3"/>
	<circle class="st12" cx="376.7" cy="312.6" r="4.5"/>
	<circle class="st12" cx="363" cy="312.6" r="4.5"/>
	<circle class="st12" cx="334.1" cy="312.6" r="4.5"/>
	<circle class="st11" cx="349.2" cy="312.6" r="4.5"/>
	<rect x="223.6" y="434" class="st9" width="22.7" height="44.7"/>
	<path class="st13" d="M245.1,438.1c-0.4,1.5-2.2,8.8-9.1,13.1c-4.6,2.9-9.1,2.9-11,2.8c-0.2-6.2-0.4-12.4-0.6-18.6   c6.9,0,13.8,0,20.8,0C245.1,436.3,245.1,437.2,245.1,438.1z"/>
	<path class="st14" d="M631.9,534.3c-2.2-2-5.5-1.8-8.7-1.6c-6.4,0.4-11.1,3.1-13.5,4.8c2.6,8.2,5.3,16.4,7.9,24.6   c-2,8.8-1.3,15.4,1.6,16.7c2.7,1.2,7.2-2.5,9.5-5.6c3.3-4.3,2.5-7.3,4-23C633.6,540,634.4,536.6,631.9,534.3z"/>
	<path class="st14" d="M485,571.7c1.3,1.8,1.4,4.4,1.6,7.9c0.1,3.3,0.2,5-0.8,6.4c-2,2.6-6.3,0.7-13.5,0.8   c-11.8,0.1-15.4,5.3-23,2.4c-2.3-0.9-5.7-2.8-5.6-4.8c0.1-1.9,3.4-2.7,8.7-5.6c5.8-3.2,5.6-4.3,9.5-6.4   C469.6,568.3,481.4,566.8,485,571.7z"/>
	<path class="st4" d="M609.6,537.5c-17.5,2.4-34.9,4.8-52.4,7.1c5.4-9.2,14.2-27,15.1-50.8c0.5-13.3-1.7-24.5-4-32.6   c-17.5,3.4-34.9,6.9-52.4,10.3c-2.7,17.3-4.7,32.6-6.4,45.3c-4.9,38.2-5.3,51.3,3.2,59.6c4.4,4.4,9.7,5.9,14.3,7.1   c13.7,3.9,25.4,0,37.3-4c17.7-5.9,33.9-11.1,53.2-17.5C614.9,553.9,612.3,545.7,609.6,537.5z"/>
	<path class="st4" d="M539,498.6c-16.7,1.6-33.4,3.2-50,4.8c-1.3,22.8-2.6,45.5-4,68.3c-7.7,0.3-15.4,0.5-23,0.8   c-5.9-22.6-10.9-42.6-15.1-59.6c-7-28.6-8.6-36.1-4.8-42.9c12.3-22,66.6-12.2,76.2-10.3C525.2,472.7,532.1,485.6,539,498.6z"/>
	<path d="M439,356.4c-2.1-3.4-3.8-4.3-5.1-7.1c-0.5-1.2-1-3-0.5-5.8c0,0,0-0.1,0-0.2c-4-3.9-5.2-8.7-3.4-11.4   c1.4-2.1,4.2-2.5,5.7-2.7c5.4-0.8,9.9,2.7,11.4,4.3c0.2,0.2,0.9,1,1.7,1.8c0.6,0.7,1.5,1.8,2.7,3.6c0.5,0.8,4.2,5.3,11.4,14.2l0,0   c0.4,2,1.1,7-1.3,12.5c-3.7,8.4-11.8,11.1-13.2,11.5c-3.9-6.7-5.9-11.7-7.1-15C440.8,360.2,440.3,358.5,439,356.4z"/>
	<path class="st15" d="M437.3,351.8c-0.1,0.7-0.3,1.8-1.1,3c-0.4,0.6-0.9,1.1-1.3,1.4c-3.3-5-4.4-6.7-8.9-13.4"/>
	<path d="M444.5,309.6c3.2,2.2,1.4,4.3,6.9,13.4c4.4,7.3,10.2,13.4,13.2,16.4c3.5,3.4,5.2,4.7,4.8,5.9c-0.7,1.8-6.1,2.2-10.6,1.1   c-11.2-2.6-21.2-14.7-23.6-13.3c-0.2,0.1-1.1,0.8-2.6,1.2c-0.7,0.2-1.2,0.3-1.4,0.3c-2.5,0.5-2.8,1.8-5,2.4s-4.3,0.1-5.2-0.1   c0,0-0.6-0.1-1.1-0.3c-1.6-0.6-23.9-9.8-23.3-18C397.2,307.4,440.5,306.8,444.5,309.6z"/>
	<path class="st15" d="M444.5,343.6c0.8-0.2,1.1-4.4-0.9-7.9c-1.7-3-5.2-5.2-6.5-4.4c-1,0.6-0.9,3.2,0.1,5c1.1,1.9,2.6,1.7,4.9,4.2   C443.7,342.4,444,343.7,444.5,343.6z"/>
	<path class="st16" d="M440.1,335.9c0,0,0.7-0.6,1.4,0.1c0.7,0.7,1.5,1.5,1.3,2.1c-0.2,0.5-0.9,0.2-1.2,0.2"/>
	<path class="st15" d="M468.4,345.3c5.4,0.9,10.7,1.9,16.1,2.8c5.8,5,8.5,12.5,6.9,19.3c-2.3,9.2-12.4,15.8-23.5,14.1   c-3.7-5.9-5.2-11.1-6-14.8c-0.9-4.8-0.3-6.4-2.1-9.7c-3-5.7-9-8.9-9.6-9.2c0,0-0.4-0.2-0.9-0.4c-0.3-0.2-0.7-0.4-1.1-0.6   c-1.2-0.7-2-1.4-3.1-2.3c-1.1-0.8-1-0.8-4.7-3.8c-2-1.6-2.1-1.7-2.4-2.1c-1.2-1.6-2.3-4.1-1.4-6c0.1-0.2,0.6-1.2,1.3-1.3   c1-0.1,1.8,1.2,2.4,2.1c1.5,2.1,4.3,4.2,10.1,8.6c1.2,0.9,1.6,1.2,2,1.4c2.3,1.2,4.3,1.7,6.3,2.1c1.8,0.4,3.6,0.8,6.1,0.6   C466.4,345.9,467.6,345.6,468.4,345.3z"/>
	<path class="st15" d="M427,327.4c1.7-0.4,3,3.8,8.4,10.4c0.5,0.6,3.3,4.1,5.2,7.8c0.4,0.8,1,2.2,1.1,4c0,1.2-0.2,2-0.4,2.9   c-0.4,1.5-0.9,3.8-1.8,3.8c-0.5,0-0.8-0.7-2.4-2.4c-0.7-0.8-1.3-1.4-1.7-1.8c-2-2-2.9-2.9-3.2-3.2c-0.1,0-0.2-0.2-0.5-0.4   c-0.4-0.4-0.7-0.9-4.3-4.6c-1.7-1.8-2-1.9-4.7-4.7c-1.2-1.2-2.2-2.2-2.8-2.8c0.8-0.6,1.9-1.4,2.9-2.7c0.5-0.6,0.7-1,2-3   C426,328.5,426.7,327.4,427,327.4z"/>
	<path class="st15" d="M445.9,355.8c-0.3,0.1-0.1,0.9-0.8,3.2c-0.4,1.6-0.8,2-0.5,2.4c0.5,0.7,2.3,0.7,3-0.1   C449,359.8,446.7,355.6,445.9,355.8z"/>
	<circle cx="429.8" cy="343.2" r="1.6"/>
	<path class="st17" d="M429.6,342.9c0.2,0.3,0.1,0.6-0.1,0.8c-0.3,0.2-0.6,0.1-0.8-0.1c-0.2-0.3-0.1-0.6,0.1-0.8   S429.4,342.6,429.6,342.9z"/>
	<path class="st18" d="M424,340c3.1-3.8,7.1-2.5,7.1-2.5"/>
	<path class="st15" d="M444.5,343.2c1.2-0.8,0.8-5-0.9-7.9c-1.6-2.9-5-5.4-6.5-4.4c-1.3,0.8-1.2,3.7-0.8,5.2   c0.5,2.1,1.8,3.1,4.4,5.1C442.8,342.9,443.9,343.6,444.5,343.2z"/>
	<path class="st16" d="M440.1,335.9c0,0,0.7-0.6,1.4,0.1c0.7,0.7,1.5,1.5,1.3,2.1c-0.2,0.5-0.9,0.2-1.2,0.2"/>
	<polygon class="st17" points="430,332.7 435.7,324.9 431.3,332.5  "/>
	<path class="st17" d="M428.7,341.9"/>
	<path class="st19" d="M607.7,572.9"/>
	<path class="st15" d="M396.6,439.3c2.3,0.7,3.8-1.5,7.7-2.6c1.2-0.3,1.2-0.2,4.7-0.6c3.2-0.4,5.8-0.8,7.8-1.2   c-1.2-3.2-2.4-6.5-3.5-9.7c-1.9-0.1-5-0.3-8.9-0.5c-7.9-0.5-9.1-0.6-11.3-0.1c-1.1,0.2-8.9,1.8-10.3,6.8c-0.4,1.5-0.4,3.7,0.8,4.8   c1.7,1.5,5.1,0.3,6.1-0.1c2.4-0.8,2.9-1.9,5.3-2.3c1.4-0.2,3.1-0.1,3.3,0.4c0.2,0.9-3.7,2.2-3.5,3.6   C395,438.8,396.5,439.3,396.6,439.3z"/>
	<rect x="248" y="434.3" class="st7" width="203" height="47.5"/>
	
		<rect x="327.5" y="359.8" transform="matrix(4.798820e-03 -1 1 4.798820e-03 -110.5947 805.1959)" class="st8" width="43.4" height="196.8"/>
	<path class="st9" d="M266.9,476.3h66.3c6.2,0,11.3-5,11.3-11.3v-9.2c0-6.2-5-11.3-11.3-11.3h-66.3c-6.2,0-11.3,5-11.3,11.3v9.2   C255.6,471.3,260.7,476.3,266.9,476.3z"/>
	<path class="st10" d="M267,464.3h27.4c1.7,0,3.1-1.4,3.1-3.1v-1.6c0-1.7-1.4-3.1-3.1-3.1H267c-1.7,0-3.1,1.4-3.1,3.1v1.6   C263.9,462.9,265.3,464.3,267,464.3z"/>
	<circle class="st11" cx="427.3" cy="459.5" r="10.3"/>
	<circle class="st12" cx="400.8" cy="460.5" r="4.5"/>
	<circle class="st12" cx="387.1" cy="460.5" r="4.5"/>
	<circle class="st12" cx="358.2" cy="460.5" r="4.5"/>
	<circle class="st11" cx="373.3" cy="460.5" r="4.5"/>
	<path class="st15" d="M417.1,456.1c0-1.1-5.9-1-6.6-3.5c-0.2-0.9,0.2-2,1-2.5c1.7-1.2,4.1,1.2,8.7,2.1c1.7,0.3,2.5,0.2,6.4,0   c3.8-0.2,10.7-0.5,16.3-0.1c2.5,0.2,6.2,0.6,10.7,1.8c-1.3,3.4-2.7,6.8-4,10.2c-7.5-1.8-13-1.1-16.7,0c-3.8,1.1-4.3,2.1-8.7,3.2   c-3.2,0.7-9.4,2.1-15.1-0.8c-1-0.5-5.7-2.9-5.4-5.8c0.2-1.4,1.5-2.5,2.4-3c1.4,0.2,3.6,0.4,6.2,0C412.5,457.7,417,457,417.1,456.1z   "/>
	<path class="st20" d="M409,438.1c-0.3-4.7-0.7-9.4-1-14.1c5.4,0,10-0.4,13.4-0.8c11.8-1.4,16.8-3.5,27-3.8   c4.9-0.1,8.8,0.2,11.1,0.5c0.9-5.1,2.8-12.5,7.5-20.5c7.1-11.9,16.5-18.5,21.6-21.5c10.5,3.6,21,7.1,31.6,10.7   c-5.1,10.9-14.8,27.5-32.5,42.1c-8.2,6.8-16.3,11.7-23.3,15.1C445.9,443.3,427.5,440.7,409,438.1z"/>
	<path class="st21" d="M466.7,381.1c0.4,3.6,1.8,15,6.8,25.1c2,4,4.9,9.7,11.1,13.1l0,0c1.1,1.1,2.9,3,4.8,6   c0.2,0.3,2.4,3.8,3.8,8.1c3.1,9.7-1,25.1,4.5,32.7c3.2,4.5,9.1,5.1,20.8,6.1c13.9,1.2,44.1,3.9,50.8-9.9c1.1-2.4,0.9-4.3-1.4-19.1   c-1.8-11.6-1.6-15.8-6.4-32.4c-3.8-12.9-10.3-35-29.7-49.4c-17.5-13-37.5-13.7-47.5-13.3c-0.6,4.3-2.1,10.6-5.6,17.4   C474.8,372.9,470,378,466.7,381.1z"/>
	<path class="st22" d="M427.8,449.4c1.1,6.1,2.1,12.2,3.2,18.3c12.7-0.4,29-0.9,48.1-1.6c16.8-0.7,21.3-0.9,26.7-4.3   c9.3-5.9,12.7-17.1,18.9-39.3c5.5-19.7,8.2-29.7,3.2-38.1c-3.4-5.7-10.4-11.6-19-11.6c-11.3,0-18.5,10.4-19.1,11.3   c-0.5,0.7-0.8,1.3-1.3,2.1c-1.2,2.1-5.5,10.2-7.5,23.7c-1.5,10.2-1.1,19.4,0,27c-3,0.4-7.7,1.1-13.5,2.4c-8.8,1.9-13.1,3.7-23,6.4   C440.6,446.4,434.9,447.9,427.8,449.4z"/>
	<path class="st22" d="M466.7,381.1c0.3,0,1.8,0.2,2.9,1.6c1.3,1.7,0.6,3.8,0.5,3.9c0,0-0.2,1.1,0.1,1.3l0,0l0,0   c1.2,0.5,4-4.2,5.2-6c1.3-2,2.3-3.5,3.3-4.7c3-3.7,5.1-6.4,5.7-7.2c2.4-2.8,4.9-8.6,5.6-22.1c-0.4-0.2-2.1-1.3-4.1-0.8   c-0.9,0.2-1.5,0.6-1.9,0.9c-0.5,3-2.2,11.8-6.6,19.6c-2.5,4.3-5.2,7.6-5.6,8.1C470.1,378,468.2,379.7,466.7,381.1z"/>
	<g id="rack_3_">
		<rect x="222.3" y="134.3" class="st7" width="203" height="47.5"/>
		
			<rect x="301.7" y="59.7" transform="matrix(4.798820e-03 -1 1 4.798820e-03 163.7545 480.7016)" class="st8" width="43.4" height="196.8"/>
		<path class="st9" d="M241.1,176.3h66.3c6.2,0,11.3-5,11.3-11.3v-9.2c0-6.2-5-11.3-11.3-11.3h-66.3c-6.2,0-11.3,5-11.3,11.3v9.2    C229.9,171.3,234.9,176.3,241.1,176.3z"/>
		<path class="st10" d="M241.3,164.3h27.4c1.7,0,3.1-1.4,3.1-3.1v-1.6c0-1.7-1.4-3.1-3.1-3.1h-27.4c-1.7,0-3.1,1.4-3.1,3.1v1.6    C238.1,162.9,239.5,164.3,241.3,164.3z"/>
		<circle class="st11" cx="401.5" cy="159.5" r="10.3"/>
		<circle class="st12" cx="375.1" cy="160.5" r="4.5"/>
		<circle class="st12" cx="361.3" cy="160.5" r="4.5"/>
		<circle class="st12" cx="332.4" cy="160.5" r="4.5"/>
		<circle class="st11" cx="347.5" cy="160.5" r="4.5"/>
	</g>
	<g id="rack_4_">
		<rect x="222.3" y="82.1" class="st7" width="203" height="47.5"/>
		
			<rect x="301.7" y="7.5" transform="matrix(4.798820e-03 -1 1 4.798820e-03 215.9671 428.7643)" class="st8" width="43.4" height="196.8"/>
		<path class="st9" d="M241.1,124.1h66.3c6.2,0,11.3-5,11.3-11.3v-9.2c0-6.2-5-11.3-11.3-11.3h-66.3c-6.2,0-11.3,5-11.3,11.3v9.2    C229.9,119.1,234.9,124.1,241.1,124.1z"/>
		<path class="st10" d="M241.3,112.1h27.4c1.7,0,3.1-1.4,3.1-3.1v-1.6c0-1.7-1.4-3.1-3.1-3.1h-27.4c-1.7,0-3.1,1.4-3.1,3.1v1.6    C238.1,110.7,239.5,112.1,241.3,112.1z"/>
		<circle class="st11" cx="401.5" cy="107.3" r="10.3"/>
		<circle class="st12" cx="375.1" cy="108.3" r="4.5"/>
		<circle class="st12" cx="361.3" cy="108.3" r="4.5"/>
		<circle class="st12" cx="332.4" cy="108.3" r="4.5"/>
		<circle class="st11" cx="347.5" cy="108.3" r="4.5"/>
	</g>
</g>
</svg>