<svg xmlns="http://www.w3.org/2000/svg" viewBox="0 0 570.43 472.09"><defs><style>.cls-1{fill:#f0f7ff;}.cls-2{fill:#fcd048;}.cls-3,.cls-6,.cls-8{fill:#fff;}.cls-3,.cls-7,.cls-9{stroke:#000;}.cls-15,.cls-3,.cls-5,.cls-7,.cls-8,.cls-9{stroke-miterlimit:10;}.cls-3,.cls-8,.cls-9{stroke-width:0.5px;}.cls-4{fill:#e1b433;}.cls-15,.cls-16,.cls-5,.cls-7,.cls-9{fill:none;}.cls-5{stroke:#e1b433;stroke-width:5px;}.cls-15,.cls-16,.cls-5,.cls-7{stroke-linecap:round;}.cls-8{stroke:#221e20;}.cls-10{fill:#9d9d9d;}.cls-11{fill:#dcdcdc;}.cls-12{fill:#113758;}.cls-13{fill:#5ea5c7;}.cls-14{fill:#0a507d;}.cls-15{stroke:#0b507d;}.cls-15,.cls-16{stroke-width:2px;}.cls-16{stroke:#c4dbfa;stroke-linejoin:round;}.cls-17{fill:#6382e5;}.cls-18{fill:#8093ff;}.cls-19{fill:#bbc7f9;}.cls-20{fill:#c5f4f9;}.cls-21{fill:#76e29a;}.cls-22{fill:#adc1f7;}.cls-23{fill:#ddd26b;}.cls-24{fill:#efa3b3;}</style></defs><title>vps-mascot-1</title><g id="Layer_3" data-name="Layer 3"><path class="cls-1" d="M570,239.47c8.33,157.32-104.45,225.66-284,232.66C223.18,474.58,0,358.86,0,249.06c0-80.61,47.26-119.4,102-171.18,41.19-39,125.25-53,200-71.15,88.72-21.6,142.06,11.33,191.26,71.15C531.53,124.41,566,163.93,570,239.47Z" transform="translate(0 -0.08)"/></g><g id="motabhai"><path class="cls-2" d="M395.28,127.41l-3.5,3.5-4.49,4.48c-6.67,2.52-16.51,6.46-28.11,12-6.56,3.06-23.52,10.17-28.77,15.42,0,0-13.89,15.54-.22,102.29h0a347.11,347.11,0,0,0,9.95,57.54c3,11.27,6.35,22,14.77,32.93a74.31,74.31,0,0,0,16.85,16.08c26.8,19.25,78.55,29.87,106.55,6.35,5-4.27,9-9.85,16.85-21,0,0,12.91-18.38,21.77-38.51,21.11-48.24,28.66-136.63,4.81-150.74-1.64-1-10.17-5.58-19.69-10.4-7.22-3.61-11.05-5.58-16.85-8.09-17.5-7.66-21.22-9.08-21.22-9.08h0c-1.86-.55-7.88-4.92-7.88-4.92-3.28-2.3-3.93-2.19-6.34-4.38a24.44,24.44,0,0,1-2.08-2.19c-1.86-2-5.25-4.26-15.75-5.36C415.52,121.28,399.77,122.92,395.28,127.41Z" transform="translate(0 -0.08)"/><path class="cls-3" d="M400,107.5a69.52,69.52,0,0,0-4.37,20.13,85.74,85.74,0,0,0,0,10.83c1.42,19.25,14,33.47,17.72,37.41a67.52,67.52,0,0,0,10.28,8.86,57.28,57.28,0,0,0,12.8-12.8c2.41-3.28,12.15-17.39,11.27-35.88-.11-1.53-.33-3.83-1-8.31-1.43-10.72-3.18-19.26-4.38-25C428.21,104.22,414.1,105.86,400,107.5Z" transform="translate(0 -0.08)"/><path class="cls-4" d="M359.51,199.5c2.73,3.28,2.62,9,2.51,11.16-.11,9.63,1.75,8,1.43,16.63-.33,10-2.74,10.06-2.08,17.94.44,5.47,1.75,7.22.44,10.94-.88,2.62-2.52,4.48-3,8.53a32.52,32.52,0,0,0-.11,4.38,78.93,78.93,0,0,1-2.73,16,74.48,74.48,0,0,1-6.46,16.63c-1.86,3.39-4,6.67-7.11,8.86-5,3.61-11.59,4.16-17.72,4.48-3.17.22-6.67.33-9-1.75-2-1.75-2.63-4.48-3.83-6.89-2.08-4.37-6.13-7.77-7.88-12.25-1.42-3.5-1.31-7.33-1-11.16,1.64-18.05,9.08-35.12,11.27-53.06.43-3.39.65-6.78,1.31-10.06,1.09-5,3.06-11.93,4.05-15.54.87-3.06,1.64-5.9,2.19-8.53.32-1.53.65-2.84.87-4.05.55-2.84,1-5,1.09-6a4.76,4.76,0,0,1,.11-.55c1.32-8,2.08-13,5.15-17.94.11-.22.54-.77,1-1.42a11.12,11.12,0,0,1,4.49,1.31c1.86,1.09,3.71,2.41,10.61,16.85,2.4,4.59,3.5,6.78,12.58,13.34C357.54,197.64,358.52,198.41,359.51,199.5Z" transform="translate(0 -0.08)"/><path class="cls-4" d="M479.73,229.26a104.74,104.74,0,0,0,1.21,17.94s4.48,17.17,4.05,22.86a11.16,11.16,0,0,1-.11,1.53,68.17,68.17,0,0,0,.32,7.33c.33,2.19.88,4.27,1.32,6.35,2.18,8.53,4.26,17,6.45,25.49,1.42,5.58,3.28,11.81,8.21,14.87,5.9,3.61,13.56,1.21,19.8-1.75a11.4,11.4,0,0,0,2.51-1.53,10.12,10.12,0,0,0,2-2.84c5.58-10.07,12.47-20.57,11.16-32.05-.66-5.69-3.39-10.94-5.25-16.41A93.43,93.43,0,0,1,528,256.5c-4.82-27.24-8.21-40.7-8.75-46.06a98.21,98.21,0,0,0-5.15-22.21c-2.29-6-4-8-6.12-9.08-5.8-3-14.11.77-18.38,5.58-2.63,3-3.5,6.24-5,11.6a63.66,63.66,0,0,0-2,9.95C480.72,218.86,479.73,225.1,479.73,229.26Z" transform="translate(0 -0.08)"/><path class="cls-3" d="M292.56,243.37c-7.11,10.72-4.16,31.83-4.16,31.83,2.63,26.48,4.05,40.81,15.32,49.45,2.95,2.19,6.12,3.83,20.12,6.56,38.84,7.66,58.31,11.05,69.58,0,8.42-8.2,11.6-23.19,6-31.72-5.47-8.31-18.6-9.19-25.93-9.63-16.63-1.09-25.38,5.14-28.77.77-2.08-2.74-.55-9.74,2.62-23.63.22-1.2.66-2.52.88-4.49a49.26,49.26,0,0,0-1-15c-1.1-4.93-3.29-10.07-7.55-12.58-4-2.41-9.08-2-13.79-1.65-6.56.33-13.67-1.2-20.13-.32a8.15,8.15,0,0,0-3.61,1.53C302,234.4,296.5,237.35,292.56,243.37Z" transform="translate(0 -0.08)"/><path class="cls-3" d="M473.5,287.67c8.75-1.75,17.17-3.17,25.27-4.15-.33-1.42-5.14-24.84,5.58-31.84,3.28-2.18,11.27-1.2,27.24.66,13.89,1.64,15.53,2.62,16.85,3.72,6.45,5.58,5.46,16,3.93,31.29-.87,9.08-2.29,22.09-10.39,30.41a50.78,50.78,0,0,1-7.66,6.23,45.66,45.66,0,0,1-11.16,5.36,79.48,79.48,0,0,1-15.31,3.51c-35.12,3.93-61,2.73-61,2.73-24.95-1.09-31.51-3.39-34-8.2a29.6,29.6,0,0,1-2.62-14.77,32.79,32.79,0,0,1,1.09-6.13A354.22,354.22,0,0,1,473.5,287.67Z" transform="translate(0 -0.08)"/><path class="cls-2" d="M355.9,195.56c1.2,2.85,1.86,4.16,2.4,5.8s2.52,7.66,2.52,20.79a96.31,96.31,0,0,1-1.42,19.14c-1,5.36-2.63,14.33-5.58,18.49-7.44,10.17-35.34,6.45-67.5-8.21a58.39,58.39,0,0,1-.65-14s.21-2.41.65-5A120.08,120.08,0,0,1,293,209.46s10.29-24.18,36.11-45.73a7.5,7.5,0,0,1,5.25-2.08c3.17.11,4.59,3.17,13.23,18.38A143.45,143.45,0,0,1,355.9,195.56Z" transform="translate(0 -0.08)"/><path class="cls-2" d="M483.89,207.05a149.48,149.48,0,0,0-1.42,26c.44,6.56,2.52,16.3,10.94,28,43.87,2.74,57.21,2.74,58.42,2a16.19,16.19,0,0,0,3.72-3.5h0c3.61-4.92,2.51-10.72,0-25.6-3-17.5-2.63-16.19-3.18-18.6-3.72-16.52-7.22-23.52-7.22-23.52a86.49,86.49,0,0,0-15-17.39A84.93,84.93,0,0,0,517,164.93c-27.24,13.79-33,21.12-32.71,25.27,0,.55.33,2.52.33,5.47A62.83,62.83,0,0,1,483.89,207.05Z" transform="translate(0 -0.08)"/><path class="cls-4" d="M423.83,185.06c-3.61-3.06-7.22-6.23-10.83-9.3l1-8.86c-4.05-3-15.32-12.14-18.16-27.57a36.47,36.47,0,0,1-.44-11.81l-8.31,8.31a148.73,148.73,0,0,0-.44,23.63,153.48,153.48,0,0,0,2.95,22.65c3.06-5,6.24-10.18,9.3-15.21,3.06,1,6.24,2,9.3,2.95.44,2.41,1,4.93,1.42,7.33C414.32,179.81,419,182.44,423.83,185.06Z" transform="translate(0 -0.08)"/><path class="cls-4" d="M423.61,184.84c3-2.73,5.91-5.58,8.87-8.31-.11-2.63-.22-5.14-.33-7.77,3.72-3.39,14-13.67,15.31-29.21a40.41,40.41,0,0,0-.65-11.81c3.06,2.51,6.12,5,9.19,7.44a155.41,155.41,0,0,1,2.18,46.27c-3.61-4.7-7.22-9.52-10.83-14.22-3,1.31-6,2.62-9,3.83.33,1,.77,2,1.1,2.95C434.12,177.62,428.87,181.23,423.61,184.84Z" transform="translate(0 -0.08)"/><path class="cls-5" d="M423.83,185.06a270.15,270.15,0,0,0,1,33.48c.33,3.5.65,7,1.09,10.39" transform="translate(0 -0.08)"/><path d="M401.63,78.84h41.68c2.18-3.18,7.65-41,6.56-45.07a67,67,0,0,0-19.58-17.62,60,60,0,0,0-30.41-8.42c-6.46,0-8,1.2-8.54,1.64-3.17,2.52-5.14,8.53.44,34.24A336.11,336.11,0,0,0,401.63,78.84Z" transform="translate(0 -0.08)"/><path d="M395.61,106.62c.11-.87.44-5,1.2-10.5,1.75-11.49,2.63-17.17,4.82-18.71,8.2-5.46,31.83,16.3,33.36,14.34.55-.66-2.08-2.52-2.95-6.35-1.53-7,4.26-15.21,7.22-14.66,1,.22,2.4,3.39,5,9.74.22.65,1.31,3.28,1.75,4.48,7.11,19.15,2.08,33.48,2.08,33.48-4.6,13.24-18.82,22.86-35.55,25.49-5.91-3.17-11.71-6.24-17.62-9.41A254.57,254.57,0,0,1,395.61,106.62Z" transform="translate(0 -0.08)"/><polygon class="cls-6" points="427.88 60.16 441.12 55.67 429.74 60.93 427.88 60.16"/><path class="cls-3" d="M426.79,96.56c9.51,1.86,11.92,8.75,15.09,7.66,3.5-1.32,2.19-10.61,1-34.35-.66-15,0-23.2-4.38-25.16-1-.44-4.26.32-10.83,1.75-6.78,1.53-9,2.29-12.69,2.4a34.66,34.66,0,0,1-8.64-.87l-.88.65c-4.15,3.5-5.25,24.51-5.25,24.51s-.76,14.66,1.53,26.69c.22,1.2.66,2.63,1.76,3.06,2.4,1.1,5.14-3.17,10.5-5.47S424.71,96.23,426.79,96.56Z" transform="translate(0 -0.08)"/><path class="cls-3" d="M431.93,105.31c.33,1.42-5.14,7.33-10.72,7.22-5.14-.11-9-5.25-8.43-6.45.44-1,2.85.43,8.32.43C428,106.3,431.6,104.11,431.93,105.31Z" transform="translate(0 -0.08)"/><path class="cls-7" d="M402.72,61.55c6.67-5.58,13.13-2,13.13-2" transform="translate(0 -0.08)"/><path class="cls-7" d="M423.29,59.15a12,12,0,0,1,13.34.65" transform="translate(0 -0.08)"/><circle cx="430.94" cy="70.99" r="2.73"/><circle cx="409.17" cy="70.88" r="2.73"/><circle class="cls-6" cx="430.83" cy="72.74" r="0.98"/><path class="cls-6" d="M410.16,72.38a1,1,0,1,1-1-1A1,1,0,0,1,410.16,72.38Z" transform="translate(0 -0.08)"/><path class="cls-8" d="M446.37,90.1c1.42.11,3.5-5.68,3.61-11.15s-1.2-12-3.06-12.26c-1.54-.21-3.07,3.61-3.61,5.91-.77,3.17-.22,5.8.87,11.05C445.17,87.92,445.6,90,446.37,90.1Z" transform="translate(0 -0.08)"/><path class="cls-8" d="M397.36,90.1c-1.42.11-3.5-5.68-3.61-11.15s1.2-12,3.06-12.26c1.53-.21,3.07,3.61,3.61,5.91.77,3.17.22,5.8-.87,11.05C398.56,87.92,398.12,90,397.36,90.1Z" transform="translate(0 -0.08)"/><polygon class="cls-6" points="441.12 55.78 447.13 53.81 441.88 56.11 441.12 55.78"/><path class="cls-9" d="M422.52,90.1a8.11,8.11,0,0,1-5.25,2c-.44,0-.88-.11-1.2-.11,1.86-9.08,3.72-18.16,5.47-27.24" transform="translate(0 -0.08)"/><path class="cls-9" d="M446.92,72.93s1.64-.11,1.64,2.95-.11,6.68-1,7.55-1.42-1.2-1.75-1.64" transform="translate(0 -0.08)"/><path class="cls-9" d="M396.59,72.93S395,72.82,395,75.88s.11,6.68,1,7.55,1.42-1.2,1.75-1.64" transform="translate(0 -0.08)"/><path class="cls-10" d="M492.86,340.18H344.74a11.84,11.84,0,0,1-11.82-11.81V254.31a11.84,11.84,0,0,1,11.82-11.82h148a11.84,11.84,0,0,1,11.82,11.82v74.06A11.6,11.6,0,0,1,492.86,340.18Z" transform="translate(0 -0.08)"/><path class="cls-11" d="M501.61,347.19H336.32a6.76,6.76,0,0,1-3.4-3.4,7,7,0,0,1-.43-3.39H504.68a4.59,4.59,0,0,1,.43,3.39A5.58,5.58,0,0,1,501.61,347.19Z" transform="translate(0 -0.08)"/><path class="cls-10" d="M501.29,350.58H335.88a6.73,6.73,0,0,1-3.39-3.39,6.92,6.92,0,0,1-.44-3.4H504.24a4.64,4.64,0,0,1,.44,3.4A5.32,5.32,0,0,1,501.29,350.58Z" transform="translate(0 -0.08)"/><circle class="cls-6" cx="421.64" cy="290" r="16.3"/><path class="cls-12" d="M461.9,433c-5.47-6.45-5.14-9.41-4.92-10.39,1-4.59,6.89-6.67,8.75-7.33,4.92-1.75,8.32-.87,18.82.88,17.17,2.84,18.27,2.29,20.56,4.48,6.35,6.46,3.72,17.94,3.18,20.24-.33,1.31-3.5,14.77-11.38,16.19-4.05.77-5-2.41-18.93-11.71C470.65,440.61,466.61,438.53,461.9,433Z" transform="translate(0 -0.08)"/><path class="cls-13" d="M455.56,430.22c-5.47-6.46-5.14-9.41-4.93-10.4,1-4.59,6.9-6.67,8.76-7.32,4.92-1.75,8.31-.88,18.81.87,17.18,2.84,18.27,2.3,20.57,4.49,6.34,6.45,3.72,17.94,3.17,20.23-.33,1.32-3.5,14.77-11.38,16.19-4,.77-5-2.4-18.92-11.7C464.31,437.88,460.37,435.8,455.56,430.22Z" transform="translate(0 -0.08)"/><path class="cls-3" d="M459.5,429.23a17.76,17.76,0,0,0,7.76-9.3,18,18,0,0,0,.11-12.36,760.91,760.91,0,0,0-93.42-55c-11.93-5.91-24.73-11.93-42.34-13.35-27.57-2.3-61.92,6.89-64,21.22-2.74,18.6,50.32,39.93,55.57,42,21,8.32,33.8,8.64,79.86,16.41C427.44,423,447.24,426.72,459.5,429.23Z" transform="translate(0 -0.08)"/><path class="cls-14" d="M405.67,404.51c3.07-16.52,19.8-23.19,21.12-23.74a306.4,306.4,0,0,0-52-29.86c-18.7-8.43-30.19-13.57-45.83-14.44-25.16-1.32-59.73,7.87-62.25,23.62-2.74,17.18,33.48,37.2,53.17,44.86,26.14,10.17,54.37,13.78,68.92,15.2,7.87.77,14.44,1.1,18.92,1.21A28.43,28.43,0,0,1,405.67,404.51Z" transform="translate(0 -0.08)"/><path class="cls-15" d="M477.55,437.77a20.79,20.79,0,0,1,8.31-14.55" transform="translate(0 -0.08)"/><path class="cls-15" d="M473.28,436.45a20.88,20.88,0,0,1,8.31-14.55" transform="translate(0 -0.08)"/><path class="cls-15" d="M468.69,433.83A20.79,20.79,0,0,1,477,419.28" transform="translate(0 -0.08)"/><path class="cls-12" d="M363.66,414.79c8.21,1.64,9.74,4.16,10.29,5.14,2.08,4.16-1.31,9.52-2.3,11.05-2.73,4.38-6,5.8-15.21,10.94-15.09,8.32-15.75,9.41-18.81,9.08-8.86-1.09-13.89-11.7-14.88-13.89-.55-1.2-6.34-13.67-1-19.58,2.73-3.07,5.36-1.21,22-2.52C352.18,414.25,356.55,413.37,363.66,414.79Z" transform="translate(0 -0.08)"/><path class="cls-13" d="M370.34,413c8.2,1.64,9.73,4.16,10.28,5.14,2.08,4.16-1.31,9.52-2.3,11.05-2.73,4.38-6,5.8-15.2,10.94-15.1,8.32-15.76,9.41-18.82,9.08-8.86-1.09-13.89-11.7-14.88-13.89-.54-1.2-6.34-13.68-1-19.58,2.73-3.07,5.36-1.21,22-2.52C358.74,412.6,363.12,411.62,370.34,413Z" transform="translate(0 -0.08)"/><path class="cls-3" d="M367.38,414.57a14,14,0,0,0-.54,10,13.78,13.78,0,0,0,4.05,5.91c48.24-.88,86.09-6.46,112.24-11.71,11.81-2.3,26.25-5.58,41.57-15.75,23.08-15.32,44.3-43.76,37.19-56.23-9.41-16.3-64.32-.22-69.68,1.31-16.52,4.92-27.9,10.72-72.86,36.54C398.89,396.3,381.28,406.48,367.38,414.57Z" transform="translate(0 -0.08)"/><path class="cls-14" d="M426,397.62c8.42,13.23,5.91,27.46,5.14,31.07a275.84,275.84,0,0,0,52.18-8.1c19.37-4.92,32.06-7.88,45-17.07,20.56-14.44,42.11-43.1,34.35-57.1-8.54-15.21-49.34-8.53-69.47-2.41-26.91,8.1-51.2,22.87-63.56,30.74-6.67,4.27-12,8.1-15.64,10.72A40.59,40.59,0,0,1,426,397.62Z" transform="translate(0 -0.08)"/><path class="cls-15" d="M348.57,420.7a21.14,21.14,0,0,1,2.84,7.11,22.43,22.43,0,0,1-.33,9.41" transform="translate(0 -0.08)"/><path class="cls-15" d="M352.73,419.06a21.35,21.35,0,0,1,2.84,7.11,22.43,22.43,0,0,1-.33,9.41" transform="translate(0 -0.08)"/><path class="cls-15" d="M357.87,418.29a21.44,21.44,0,0,1,2.84,7.11,22.43,22.43,0,0,1-.33,9.41" transform="translate(0 -0.08)"/></g><g id="server"><path class="cls-16" d="M243.17,274.77s27.5-11,23.41,28.69S240,343.24,240,343.24" transform="translate(0 -0.08)"/><path class="cls-16" d="M244.84,73s30.45,6.31,33.85,55.46C282.56,184.41,247,142,247,142" transform="translate(0 -0.08)"/><path class="cls-16" d="M243.17,142.27s28-10,28,26.64c0,61.54-23.7,38.58-23.7,38.58" transform="translate(0 -0.08)"/><path class="cls-16" d="M244.75,208.92s16.58,9,20.5,39c7.26,55.56-17.45,27.92-17.45,27.92" transform="translate(0 -0.08)"/><rect class="cls-17" x="239.98" y="69.09" width="9.71" height="9.71" rx="3.64" ry="3.64"/><rect class="cls-18" x="8.55" y="49.26" width="236.29" height="51.2" rx="7.53" ry="7.53"/><rect class="cls-19" x="103.86" y="70.01" width="78.97" height="8.6" rx="3.94" ry="3.94"/><rect class="cls-20" x="109.55" y="73.95" width="33.8" height="0.72"/><circle class="cls-21" cx="223.59" cy="74.85" r="4.84"/><circle class="cls-22" cx="42.5" cy="63.36" r="1.96"/><circle class="cls-22" cx="48.75" cy="63.36" r="1.96"/><circle class="cls-22" cx="55" cy="63.36" r="1.96"/><circle class="cls-22" cx="61.24" cy="63.36" r="1.96"/><circle class="cls-22" cx="67.49" cy="63.36" r="1.96"/><circle class="cls-22" cx="42.5" cy="68.95" r="1.96"/><circle class="cls-22" cx="48.75" cy="68.95" r="1.96"/><circle class="cls-22" cx="55" cy="68.95" r="1.96"/><circle class="cls-22" cx="61.24" cy="68.95" r="1.96"/><circle class="cls-22" cx="67.49" cy="68.95" r="1.96"/><circle class="cls-22" cx="42.5" cy="74.91" r="1.96"/><circle class="cls-22" cx="48.75" cy="74.91" r="1.96"/><circle class="cls-22" cx="55" cy="74.91" r="1.96"/><circle class="cls-22" cx="61.24" cy="74.91" r="1.96"/><circle class="cls-22" cx="67.49" cy="74.91" r="1.96"/><circle class="cls-22" cx="42.5" cy="80.63" r="1.96"/><circle class="cls-22" cx="48.75" cy="80.63" r="1.96"/><circle class="cls-22" cx="55" cy="80.63" r="1.96"/><circle class="cls-22" cx="61.24" cy="80.63" r="1.96"/><circle class="cls-22" cx="67.49" cy="80.63" r="1.96"/><circle class="cls-22" cx="42.5" cy="86.35" r="1.96"/><circle class="cls-22" cx="48.75" cy="86.35" r="1.96"/><circle class="cls-22" cx="55" cy="86.35" r="1.96"/><circle class="cls-22" cx="61.24" cy="86.35" r="1.96"/><circle class="cls-22" cx="67.49" cy="86.35" r="1.96"/><rect class="cls-17" x="239.98" y="136.12" width="9.71" height="10.13" rx="3.64" ry="3.64"/><rect class="cls-18" x="8.55" y="115.43" width="236.29" height="53.4" rx="7.53" ry="7.53"/><rect class="cls-19" x="103.86" y="137.08" width="78.97" height="8.97" rx="4.11" ry="4.11"/><rect class="cls-20" x="109.55" y="141.19" width="33.8" height="0.76"/><ellipse class="cls-23" cx="223.59" cy="142.13" rx="4.84" ry="5.05"/><ellipse class="cls-22" cx="42.5" cy="130.15" rx="1.96" ry="2.05"/><ellipse class="cls-22" cx="48.75" cy="130.15" rx="1.96" ry="2.05"/><ellipse class="cls-22" cx="55" cy="130.15" rx="1.96" ry="2.05"/><ellipse class="cls-22" cx="61.24" cy="130.15" rx="1.96" ry="2.05"/><ellipse class="cls-22" cx="67.49" cy="130.15" rx="1.96" ry="2.05"/><ellipse class="cls-22" cx="42.5" cy="135.97" rx="1.96" ry="2.05"/><ellipse class="cls-22" cx="48.75" cy="135.97" rx="1.96" ry="2.05"/><ellipse class="cls-22" cx="55" cy="135.97" rx="1.96" ry="2.05"/><ellipse class="cls-22" cx="61.24" cy="135.97" rx="1.96" ry="2.05"/><ellipse class="cls-22" cx="67.49" cy="135.97" rx="1.96" ry="2.05"/><ellipse class="cls-22" cx="42.5" cy="142.19" rx="1.96" ry="2.05"/><ellipse class="cls-22" cx="48.75" cy="142.19" rx="1.96" ry="2.05"/><ellipse class="cls-22" cx="55" cy="142.19" rx="1.96" ry="2.05"/><ellipse class="cls-22" cx="61.24" cy="142.19" rx="1.96" ry="2.05"/><ellipse class="cls-22" cx="67.49" cy="142.19" rx="1.96" ry="2.05"/><ellipse class="cls-22" cx="42.5" cy="148.15" rx="1.96" ry="2.05"/><ellipse class="cls-22" cx="48.75" cy="148.15" rx="1.96" ry="2.05"/><ellipse class="cls-22" cx="55" cy="148.15" rx="1.96" ry="2.05"/><ellipse class="cls-22" cx="61.24" cy="148.15" rx="1.96" ry="2.05"/><ellipse class="cls-22" cx="67.49" cy="148.15" rx="1.96" ry="2.05"/><ellipse class="cls-22" cx="42.5" cy="154.12" rx="1.96" ry="2.05"/><ellipse class="cls-22" cx="48.75" cy="154.12" rx="1.96" ry="2.05"/><ellipse class="cls-22" cx="55" cy="154.12" rx="1.96" ry="2.05"/><ellipse class="cls-22" cx="61.24" cy="154.12" rx="1.96" ry="2.05"/><ellipse class="cls-22" cx="67.49" cy="154.12" rx="1.96" ry="2.05"/><rect class="cls-17" x="239.98" y="203.4" width="9.71" height="10.13" rx="3.64" ry="3.64"/><rect class="cls-18" x="8.55" y="182.71" width="236.29" height="53.4" rx="7.53" ry="7.53"/><rect class="cls-19" x="103.86" y="204.36" width="78.97" height="8.97" rx="4.11" ry="4.11"/><rect class="cls-20" x="109.55" y="208.46" width="33.8" height="0.76"/><ellipse class="cls-21" cx="223.59" cy="209.41" rx="4.84" ry="5.05"/><ellipse class="cls-22" cx="42.5" cy="197.42" rx="1.96" ry="2.05"/><ellipse class="cls-22" cx="48.75" cy="197.42" rx="1.96" ry="2.05"/><ellipse class="cls-22" cx="55" cy="197.42" rx="1.96" ry="2.05"/><ellipse class="cls-22" cx="61.24" cy="197.42" rx="1.96" ry="2.05"/><ellipse class="cls-22" cx="67.49" cy="197.42" rx="1.96" ry="2.05"/><ellipse class="cls-22" cx="42.5" cy="203.25" rx="1.96" ry="2.05"/><ellipse class="cls-22" cx="48.75" cy="203.25" rx="1.96" ry="2.05"/><ellipse class="cls-22" cx="55" cy="203.25" rx="1.96" ry="2.05"/><ellipse class="cls-22" cx="61.24" cy="203.25" rx="1.96" ry="2.05"/><ellipse class="cls-22" cx="67.49" cy="203.25" rx="1.96" ry="2.05"/><ellipse class="cls-22" cx="42.5" cy="209.46" rx="1.96" ry="2.05"/><ellipse class="cls-22" cx="48.75" cy="209.46" rx="1.96" ry="2.05"/><ellipse class="cls-22" cx="55" cy="209.46" rx="1.96" ry="2.05"/><ellipse class="cls-22" cx="61.24" cy="209.46" rx="1.96" ry="2.05"/><ellipse class="cls-22" cx="67.49" cy="209.46" rx="1.96" ry="2.05"/><ellipse class="cls-22" cx="42.5" cy="215.43" rx="1.96" ry="2.05"/><ellipse class="cls-22" cx="48.75" cy="215.43" rx="1.96" ry="2.05"/><ellipse class="cls-22" cx="55" cy="215.43" rx="1.96" ry="2.05"/><ellipse class="cls-22" cx="61.24" cy="215.43" rx="1.96" ry="2.05"/><ellipse class="cls-22" cx="67.49" cy="215.43" rx="1.96" ry="2.05"/><ellipse class="cls-22" cx="42.5" cy="221.39" rx="1.96" ry="2.05"/><ellipse class="cls-22" cx="48.75" cy="221.39" rx="1.96" ry="2.05"/><ellipse class="cls-22" cx="55" cy="221.39" rx="1.96" ry="2.05"/><ellipse class="cls-22" cx="61.24" cy="221.39" rx="1.96" ry="2.05"/><ellipse class="cls-22" cx="67.49" cy="221.39" rx="1.96" ry="2.05"/><rect class="cls-17" x="239.98" y="270.67" width="9.71" height="10.13" rx="3.64" ry="3.64"/><rect class="cls-18" x="8.55" y="249.99" width="236.29" height="53.4" rx="7.53" ry="7.53"/><rect class="cls-19" x="103.86" y="271.63" width="78.97" height="8.97" rx="4.11" ry="4.11"/><rect class="cls-20" x="109.55" y="275.74" width="33.8" height="0.76"/><ellipse class="cls-24" cx="223.59" cy="276.68" rx="4.84" ry="5.05"/><ellipse class="cls-22" cx="42.5" cy="264.7" rx="1.96" ry="2.05"/><ellipse class="cls-22" cx="48.75" cy="264.7" rx="1.96" ry="2.05"/><ellipse class="cls-22" cx="55" cy="264.7" rx="1.96" ry="2.05"/><ellipse class="cls-22" cx="61.24" cy="264.7" rx="1.96" ry="2.05"/><ellipse class="cls-22" cx="67.49" cy="264.7" rx="1.96" ry="2.05"/><ellipse class="cls-22" cx="42.5" cy="270.53" rx="1.96" ry="2.05"/><ellipse class="cls-22" cx="48.75" cy="270.53" rx="1.96" ry="2.05"/><ellipse class="cls-22" cx="55" cy="270.53" rx="1.96" ry="2.05"/><ellipse class="cls-22" cx="61.24" cy="270.53" rx="1.96" ry="2.05"/><ellipse class="cls-22" cx="67.49" cy="270.53" rx="1.96" ry="2.05"/><ellipse class="cls-22" cx="42.5" cy="276.74" rx="1.96" ry="2.05"/><ellipse class="cls-22" cx="48.75" cy="276.74" rx="1.96" ry="2.05"/><ellipse class="cls-22" cx="55" cy="276.74" rx="1.96" ry="2.05"/><ellipse class="cls-22" cx="61.24" cy="276.74" rx="1.96" ry="2.05"/><ellipse class="cls-22" cx="67.49" cy="276.74" rx="1.96" ry="2.05"/><ellipse class="cls-22" cx="42.5" cy="282.7" rx="1.96" ry="2.05"/><ellipse class="cls-22" cx="48.75" cy="282.7" rx="1.96" ry="2.05"/><ellipse class="cls-22" cx="55" cy="282.7" rx="1.96" ry="2.05"/><ellipse class="cls-22" cx="61.24" cy="282.7" rx="1.96" ry="2.05"/><ellipse class="cls-22" cx="67.49" cy="282.7" rx="1.96" ry="2.05"/><ellipse class="cls-22" cx="42.5" cy="288.67" rx="1.96" ry="2.05"/><ellipse class="cls-22" cx="48.75" cy="288.67" rx="1.96" ry="2.05"/><ellipse class="cls-22" cx="55" cy="288.67" rx="1.96" ry="2.05"/><ellipse class="cls-22" cx="61.24" cy="288.67" rx="1.96" ry="2.05"/><ellipse class="cls-22" cx="67.49" cy="288.67" rx="1.96" ry="2.05"/><rect class="cls-17" x="239.98" y="336.67" width="9.71" height="10.13" rx="3.64" ry="3.64"/><rect class="cls-18" x="8.55" y="315.99" width="236.29" height="53.4" rx="7.53" ry="7.53"/><rect class="cls-19" x="103.86" y="337.63" width="78.97" height="8.97" rx="4.11" ry="4.11"/><rect class="cls-20" x="109.55" y="341.74" width="33.8" height="0.76"/><ellipse class="cls-21" cx="223.59" cy="342.68" rx="4.84" ry="5.05"/><ellipse class="cls-22" cx="42.5" cy="330.7" rx="1.96" ry="2.05"/><ellipse class="cls-22" cx="48.75" cy="330.7" rx="1.96" ry="2.05"/><ellipse class="cls-22" cx="55" cy="330.7" rx="1.96" ry="2.05"/><ellipse class="cls-22" cx="61.24" cy="330.7" rx="1.96" ry="2.05"/><ellipse class="cls-22" cx="67.49" cy="330.7" rx="1.96" ry="2.05"/><ellipse class="cls-22" cx="42.5" cy="336.53" rx="1.96" ry="2.05"/><ellipse class="cls-22" cx="48.75" cy="336.53" rx="1.96" ry="2.05"/><ellipse class="cls-22" cx="55" cy="336.53" rx="1.96" ry="2.05"/><ellipse class="cls-22" cx="61.24" cy="336.53" rx="1.96" ry="2.05"/><ellipse class="cls-22" cx="67.49" cy="336.53" rx="1.96" ry="2.05"/><ellipse class="cls-22" cx="42.5" cy="342.74" rx="1.96" ry="2.05"/><ellipse class="cls-22" cx="48.75" cy="342.74" rx="1.96" ry="2.05"/><ellipse class="cls-22" cx="55" cy="342.74" rx="1.96" ry="2.05"/><ellipse class="cls-22" cx="61.24" cy="342.74" rx="1.96" ry="2.05"/><ellipse class="cls-22" cx="67.49" cy="342.74" rx="1.96" ry="2.05"/><ellipse class="cls-22" cx="42.5" cy="348.7" rx="1.96" ry="2.05"/><ellipse class="cls-22" cx="48.75" cy="348.7" rx="1.96" ry="2.05"/><ellipse class="cls-22" cx="55" cy="348.7" rx="1.96" ry="2.05"/><ellipse class="cls-22" cx="61.24" cy="348.7" rx="1.96" ry="2.05"/><ellipse class="cls-22" cx="67.49" cy="348.7" rx="1.96" ry="2.05"/><ellipse class="cls-22" cx="42.5" cy="354.67" rx="1.96" ry="2.05"/><ellipse class="cls-22" cx="48.75" cy="354.67" rx="1.96" ry="2.05"/><ellipse class="cls-22" cx="55" cy="354.67" rx="1.96" ry="2.05"/><ellipse class="cls-22" cx="61.24" cy="354.67" rx="1.96" ry="2.05"/><ellipse class="cls-22" cx="67.49" cy="354.67" rx="1.96" ry="2.05"/></g></svg>